<svg width="1840" height="1840" viewBox="0 0 1840 1840" fill="none" xmlns="http://www.w3.org/2000/svg">
<path fill-rule="evenodd" clip-rule="evenodd" d="M803.53 786.233C802.242 788.717 798.47 813.833 813.282 813.833C815.869 813.838 818.372 812.911 820.332 811.222C822.292 809.532 823.578 807.193 823.954 804.633C827.082 776.481 808.682 776.573 803.53 786.233ZM936.93 785.865C937.758 795.617 938.862 804.265 948.614 804.265C951.201 804.27 953.704 803.343 955.664 801.654C957.624 799.964 958.91 797.625 959.286 795.065C959.484 789.145 958.834 783.228 957.354 777.493C952.018 767.649 935.55 770.041 936.93 785.865ZM872.53 874.737C875.382 874.737 900.13 873.541 905.926 869.033C907.674 867.745 907.49 865.261 907.49 862.961C906.938 836.864 904.416 810.846 899.946 785.129C899.946 783.749 898.75 783.473 898.014 783.657C897.278 783.841 896.91 785.129 897.002 787.337C897.002 794.881 896.358 797.457 899.026 839.685C900.774 867.285 900.038 859.557 900.59 864.157C891.962 867.318 883.104 869.809 874.094 871.609C868.114 872.897 872.346 874.737 872.53 874.737ZM901.602 938.401C894.776 942.06 887.249 944.224 879.522 944.749C879.131 944.749 878.757 944.904 878.481 945.18C878.205 945.456 878.05 945.83 878.05 946.221C878.05 946.611 878.205 946.986 878.481 947.262C878.757 947.538 879.131 947.693 879.522 947.693C883.844 949.247 888.461 949.807 893.03 949.33C897.598 948.853 902 947.351 905.908 944.938C909.816 942.524 913.13 939.26 915.602 935.388C918.073 931.517 919.64 927.138 920.186 922.577C920.234 922.389 920.245 922.195 920.218 922.003C920.191 921.811 920.126 921.627 920.028 921.461C919.93 921.294 919.8 921.148 919.645 921.032C919.491 920.916 919.315 920.831 919.128 920.783C918.94 920.734 918.745 920.723 918.554 920.75C918.362 920.777 918.178 920.842 918.012 920.94C917.845 921.038 917.699 921.169 917.583 921.323C917.467 921.478 917.382 921.653 917.334 921.841C913.608 928.627 908.188 934.333 901.602 938.401ZM489.258 228.897C512.902 307.925 596.53 304.061 606.282 309.949C606.282 310.869 625.418 384.561 633.146 394.681C637.47 400.293 647.866 398.085 654.766 396.797C670.958 393.577 689.726 392.565 703.434 381.617C706.93 378.765 704.906 367.173 703.986 363.217C701.057 346.675 697 330.352 691.842 314.365C689.813 309.541 688.092 304.594 686.69 299.553C693.038 293.929 699.943 288.966 707.298 284.741C719.437 276.471 730.235 266.387 739.314 254.841C756.88 229.106 764.821 198.006 761.743 167C758.664 135.994 744.762 107.062 722.478 85.2848C654.306 18.4008 531.026 40.2048 491.006 124.569C477.298 153.825 479.966 198.169 489.258 228.897ZM699.202 377.201C686.966 387.045 668.934 388.333 653.202 391.553C648.97 392.473 638.942 394.957 636.274 391.553C631.068 384.039 627.323 375.612 625.234 366.713C649.065 363.354 672.373 356.986 694.602 347.761C697.609 357.286 699.16 367.212 699.202 377.201ZM693.59 343.989C670.082 348.37 646.996 354.772 624.59 363.125C622.214 352.447 619.14 341.937 615.39 331.661C639.159 329.171 662.471 323.413 684.666 314.549C688.378 324.274 691.451 334.231 693.866 344.357L693.59 343.989ZM496.802 127.421C535.35 47.7488 653.202 27.6008 717.602 90.6207C738.533 111.151 751.628 138.354 754.618 167.521C757.609 196.687 750.307 225.982 733.978 250.333C718.062 272.781 685.862 288.237 680.894 296.333C679.146 299.185 682.366 306.453 684.39 311.605C673.902 313.629 662.402 316.113 652.098 318.413C649.338 305.809 636.458 254.933 631.674 242.973C629.834 238.189 628.178 238.557 623.302 239.937C596.438 239.937 566.906 233.129 557.43 207.829C556.285 204.863 555.482 201.776 555.038 198.629C553.75 185.381 564.238 169.925 575.83 171.029C574.174 181.149 575.83 200.469 584.478 206.265C593.126 212.061 602.878 202.861 602.878 194.581C602.387 188.61 600.446 182.849 597.224 177.799C594.001 172.748 589.594 168.561 584.386 165.601C585.832 162.316 587.975 159.386 590.667 157.012C593.358 154.639 596.534 152.879 599.974 151.855C603.413 150.831 607.034 150.567 610.586 151.082C614.137 151.597 617.535 152.878 620.542 154.837C613.274 169.005 620.542 201.481 633.422 193.845C646.302 186.209 642.07 167.441 634.066 157.045C630.202 151.985 629.374 153.365 631.306 151.893C646.302 140.945 663.322 153.641 670.498 170.293C680.802 193.201 658.722 221.445 644.738 230.001C644.396 230.208 644.151 230.543 644.056 230.931C643.961 231.319 644.024 231.729 644.232 232.071C644.439 232.412 644.774 232.658 645.162 232.752C645.55 232.847 645.96 232.784 646.302 232.577C663.414 222.549 685.034 193.017 675.19 168.177C665.346 143.337 640.598 133.769 624.958 148.581C621.02 145.879 616.525 144.095 611.806 143.36C607.087 142.625 602.263 142.959 597.69 144.336C593.117 145.713 588.911 148.099 585.383 151.318C581.854 154.536 579.093 158.505 577.302 162.933C560.19 160.725 545.746 180.689 547.678 198.813C548.717 206.823 551.745 214.446 556.485 220.987C561.226 227.527 567.528 232.776 574.818 236.257C583.466 240.397 614.194 247.941 626.338 244.445C630.57 253.645 645.934 307.649 648.694 318.965C607.846 328.165 616.126 332.489 614.102 326.509C611.71 319.057 610.238 308.109 608.214 307.373C557.43 295.873 511.614 287.409 494.502 227.149C486.13 197.985 483.922 154.745 496.802 127.421ZM582.178 172.869C585.664 175.342 588.577 178.537 590.72 182.235C592.863 185.934 594.185 190.05 594.598 194.305C594.598 196.789 588.986 203.505 585.398 196.145C582.651 188.713 581.674 180.744 582.546 172.869H582.178ZM625.602 158.793C632.962 165.969 637.562 182.713 629.558 187.589C626.783 183.392 624.987 178.625 624.303 173.641C623.618 168.657 624.062 163.582 625.602 158.793ZM349.602 509.957C387.046 498.273 432.402 508.393 449.882 549.793C480.15 619.897 400.11 655.593 400.938 659.273C402.778 668.473 406.09 684.573 407.47 693.865C407.58 694.646 407.995 695.351 408.625 695.825C409.254 696.3 410.047 696.505 410.828 696.395C411.608 696.285 412.314 695.87 412.788 695.24C413.263 694.61 413.467 693.818 413.358 693.037C412.254 683.837 411.058 670.589 409.77 661.021C422.777 655.803 434.814 648.432 445.374 639.217C510.326 562.581 437.83 465.889 345.186 496.157C330.516 500.434 317.541 509.172 308.062 521.157C298.583 533.142 293.069 547.78 292.286 563.041C289.342 599.289 318.23 630.569 364.874 626.521C365.577 626.397 366.214 626.029 366.673 625.483C367.132 624.936 367.383 624.245 367.383 623.531C367.383 622.817 367.132 622.126 366.673 621.579C366.214 621.032 365.577 620.664 364.874 620.541C323.474 622.657 301.302 592.941 305.258 564.421C306.174 551.891 310.92 539.947 318.852 530.205C326.784 520.463 337.518 513.394 349.602 509.957ZM1036.75 269.929C1037.53 270.136 1038.36 270.025 1039.06 269.619C1039.76 269.214 1040.27 268.548 1040.48 267.767C1040.68 266.986 1040.57 266.155 1040.17 265.456C1039.76 264.757 1039.09 264.248 1038.31 264.041C998.478 252.817 986.978 217.581 999.858 191.729C1004.87 180.183 1013.32 170.459 1024.05 163.876C1034.78 157.293 1047.28 154.169 1059.84 154.929C1129.03 156.677 1159.39 220.341 1133.44 265.789C1116.24 296.885 1093.24 305.257 1063.8 309.121C1062.87 309.251 1062.01 309.681 1061.34 310.345C1060.68 311.009 1060.25 311.871 1060.12 312.801C1059.11 321.265 1056.9 337.917 1055.24 347.577C1055.08 348.345 1055.24 349.145 1055.67 349.801C1056.1 350.457 1056.77 350.914 1057.54 351.073C1058.31 351.231 1059.11 351.078 1059.77 350.647C1060.42 350.215 1060.88 349.541 1061.04 348.773C1063.15 338.837 1066.01 327.153 1067.94 317.309C1081.91 316.557 1095.66 313.446 1108.6 308.109C1139.79 289.709 1158.74 260.637 1156.26 223.837C1150.46 137.449 1024.42 106.537 988.174 187.037C974.098 219.789 991.21 259.625 1036.75 269.929ZM1547.9 701.593C1546.85 684.539 1540.76 668.181 1530.42 654.581C1520.47 643.385 1508.34 634.345 1494.76 628.016C1481.18 621.687 1466.46 618.204 1451.49 617.781C1436.25 617.074 1421.16 621.122 1408.32 629.363C1395.48 637.604 1385.52 649.631 1379.82 663.781C1365.37 697.177 1382.76 736.093 1428.12 747.133C1428.52 747.315 1428.96 747.406 1429.4 747.4C1429.85 747.394 1430.28 747.291 1430.68 747.099C1431.08 746.906 1431.43 746.628 1431.72 746.285C1432 745.942 1432.2 745.541 1432.31 745.112C1432.42 744.682 1432.43 744.234 1432.35 743.798C1432.26 743.363 1432.09 742.951 1431.83 742.591C1431.57 742.231 1431.23 741.932 1430.85 741.716C1430.46 741.499 1430.03 741.37 1429.59 741.337C1390.03 729.377 1378.25 695.337 1391.23 669.025C1396.24 657.479 1404.69 647.755 1415.42 641.172C1426.15 634.589 1438.64 631.465 1451.21 632.225C1463.97 632.579 1476.52 635.518 1488.11 640.863C1499.7 646.207 1510.09 653.847 1518.65 663.321C1527.26 674.568 1532.38 688.102 1533.37 702.237C1539.9 783.381 1452.5 783.657 1451.67 790.097C1450.57 799.297 1448.54 815.489 1446.79 824.873C1446.64 825.641 1446.79 826.441 1447.22 827.097C1447.65 827.753 1448.33 828.21 1449.09 828.369C1449.86 828.527 1450.66 828.374 1451.32 827.943C1451.97 827.511 1452.43 826.837 1452.59 826.069C1454.8 816.225 1457.56 804.449 1459.49 794.605C1473.49 793.818 1487.26 790.709 1500.25 785.405C1530.97 767.373 1550.39 738.761 1547.9 701.593ZM448.41 763.601C452.366 747.225 440.498 730.021 428.722 731.401C421.084 730.575 413.393 730.359 405.722 730.757C385.758 735.541 376.374 761.669 395.142 774.457C416.67 788.809 444.546 778.873 448.41 763.601ZM434.15 761.761C430.882 764.487 426.881 766.184 422.65 766.637C397.626 770.133 392.29 748.237 409.126 741.061L428.906 737.381C437.462 738.117 439.394 756.425 434.15 761.301V761.761ZM1047.61 382.721C1026.17 374.901 1002.99 399.097 1018.17 419.521C1033.35 439.945 1063.43 439.945 1072.08 426.329C1080.73 412.713 1075.48 392.105 1063.89 389.529C1062.88 389.069 1054.87 385.389 1047.61 382.721ZM1059.2 419.521C1055.08 420.921 1050.67 421.234 1046.4 420.428C1042.13 419.622 1038.14 417.725 1034.82 414.921C1032.1 412.969 1029.86 410.419 1028.29 407.469C1025.62 400.017 1035.19 392.381 1042.18 391.921L1062.05 394.773C1069.78 398.913 1065.91 416.945 1059.2 419.797V419.521ZM1455.17 867.377C1453.33 866.549 1443.85 862.593 1438.97 860.753C1417.45 852.933 1394.35 877.129 1409.53 897.553C1424.71 917.977 1454.71 917.977 1463.45 904.361C1472.19 890.745 1466.85 869.953 1455.17 867.377ZM1450.47 897.829C1446.36 899.22 1441.95 899.528 1437.68 898.722C1433.41 897.917 1429.42 896.025 1426.09 893.229C1423.4 891.214 1421.17 888.64 1419.56 885.685C1416.99 878.325 1426.46 870.689 1433.45 870.229L1453.33 873.081C1461.05 876.945 1457.19 894.885 1450.47 897.829Z" fill="black"/>
<path fill-rule="evenodd" clip-rule="evenodd" d="M1380 1374.85C1361.6 1284.32 1290.03 1144.85 1204.1 1109.25L1186.8 1073.09C1186.68 1072.83 1186.5 1072.59 1186.28 1072.41C1186.06 1072.22 1185.8 1072.08 1185.52 1072C1185.24 1071.92 1184.95 1071.91 1184.66 1071.95C1184.37 1072 1184.1 1072.1 1183.86 1072.26L1165.46 1084.13C1159.61 1045.08 1141.77 1008.81 1114.4 980.353C1133.53 950.821 1164.17 941.805 1195.82 940.425C1222.04 939.321 1241.36 937.757 1256.54 915.309C1286.62 870.965 1279.54 827.725 1244.21 786.509C1190.39 723.765 1169.23 742.533 1143.01 707.849C1093.15 642.713 1081.83 546.389 1008.41 496.249C914.575 432.677 863.975 483.921 844.287 499.745C815.491 482.265 751.275 488.337 723.675 511.981C700.215 532.037 669.119 557.981 657.067 586.961C631.399 648.141 634.159 720.545 596.623 776.021C587.423 789.821 571.691 799.113 560.559 812.177C545.279 831.335 532.281 852.206 521.827 874.369C508.211 900.129 497.815 928.741 510.235 955.421C526.887 991.117 564.147 1025.16 603.891 1022.58C626.891 1021.02 657.343 1007.22 678.963 1016.33C691.843 1021.66 696.811 1034.08 706.563 1044.48C728.643 1069.04 780.163 1076.49 808.683 1059.47C777.311 1099.4 729.471 1098.02 646.027 1144.02C517.963 1214.49 471.227 1294.53 457.519 1376.51C452.275 1402.01 448.406 1427.77 445.927 1453.69C438.015 1587.37 478.587 1756.83 610.147 1784.89C646.211 1792.62 687.519 1797.59 723.215 1788.67C790.835 1771.83 871.519 1726.29 930.767 1689.31C958.367 1672.1 1060.49 1603.19 1107.96 1594.18C1110.82 1618.73 1117.01 1642.78 1126.36 1665.66C1164.35 1743.77 1225.17 1789.95 1310.36 1769.9C1365.56 1756.93 1381.29 1698.14 1382.76 1641.83C1410.46 1582.4 1388.47 1418.09 1380 1374.85ZM1061.68 944.105C1078.06 947.141 1089.28 962.505 1101.43 975.017C1133.53 1007.13 1155.61 1041.53 1162.24 1085.42C1135.65 1102.35 1118.35 1113.02 1117.99 1113.57C1117.62 1114.12 1104.83 1081.55 1097.1 1077.6C1085.54 1071.86 1075.05 1064.17 1066.1 1054.87C1059.2 1047.24 1050.73 1033.81 1051.84 1023.69C1056.73 1021.08 1062.07 1019.43 1067.57 1018.81V1013.11C1039.14 1013.93 1029.39 1039.88 1026.81 1045.67C1024.97 1049.81 1022.4 1053.95 1016.51 1053.31C1010.62 1052.67 1008.51 1045.86 1010.71 1039.79C1012.92 1033.71 1018.26 1007.03 1055.89 1001.24C1056.36 1001.17 1056.81 1001.01 1057.22 1000.77C1057.63 1000.53 1057.99 1000.21 1058.28 999.828C1058.56 999.448 1058.77 999.016 1058.89 998.555C1059.01 998.094 1059.04 997.614 1058.97 997.143C1058.9 996.672 1058.74 996.218 1058.5 995.809C1058.26 995.399 1057.94 995.04 1057.56 994.754C1057.18 994.468 1056.75 994.26 1056.29 994.141C1055.83 994.022 1055.35 993.995 1054.87 994.061C1047 995.062 1039.37 997.461 1032.33 1001.15C1026.01 1004.23 1020.4 1008.6 1015.86 1013.97C1011.31 1019.33 1007.93 1025.59 1005.93 1032.33C1001.51 1044.94 986.059 1039.33 989.739 1028.47C993.442 1017.91 998.952 1008.07 1006.02 999.397C1013.87 991.912 1023.31 986.284 1033.62 982.929C1041.72 979.617 1048.62 981.181 1050.46 978.513C1052.3 975.845 1047.97 966.921 1045.77 964.253C1033.9 950.085 999.767 962.321 986.703 946.497C978.331 936.101 995.903 935.733 1002.99 934.813C1022.86 932.605 1041.72 940.333 1061.68 944.105ZM1095.45 1172.08C1069.15 1180.65 1042.32 1187.51 1015.13 1192.6C1024.33 1140.25 1030.59 1095.35 1029.67 1079.07C1051.1 1083.21 1075.67 1086.15 1102.53 1090.57C1109.8 1102.62 1113.75 1112.74 1115.5 1115.59L1097.65 1126.91C1096.73 1128.11 1096.92 1123.14 1095.45 1172.08ZM995.535 1437.87C999.609 1455.54 1002.5 1473.45 1004.18 1491.51C966.463 1489.11 937.667 1489.57 923.499 1489.02C924.051 1463.17 924.327 1455.17 924.787 1449.74C948.005 1443.85 971.667 1439.88 995.535 1437.87ZM850.819 1211.27C903.011 1211.64 955.133 1207.4 1006.57 1198.58C990.199 1286.9 965.267 1393.07 953.491 1414.32C926.443 1340.53 929.203 1340.26 850.819 1211.27ZM961.219 1413.12C976.123 1379.73 998.755 1280.09 1013.84 1197.11C1041.3 1191.96 1068.38 1184.95 1094.89 1176.13C1092.04 1275.49 1091.21 1399.51 1097.19 1499.14C1079.71 1497.58 1054.32 1495.37 1029.67 1493.44C1028.1 1478.53 1021.94 1426.65 1016.69 1413.03C1015.31 1409.35 1013.66 1407.88 1007.49 1407.69C992.11 1408.37 976.796 1410.18 961.679 1413.12H961.219ZM994.063 1062.14C984.745 1056.69 977.302 1048.54 972.719 1038.77C976.978 1040.57 981.42 1041.9 985.967 1042.73C987.692 1044.67 989.917 1046.1 992.399 1046.86C994.881 1047.63 997.526 1047.69 1000.04 1047.05C1004.18 1045.77 1001.51 1045.21 1003.72 1051.01C1004.57 1053.34 1006 1055.42 1007.87 1057.05C1009.75 1058.68 1012.01 1059.81 1014.44 1060.33C1016.87 1060.84 1019.39 1060.73 1021.76 1060C1024.14 1059.27 1026.29 1057.95 1028.01 1056.16C1031.6 1052.94 1031.87 1049.08 1036.2 1040.8C1040.43 1039.97 1044.57 1038.87 1048.62 1037.67C1059.57 1066.37 1093.88 1080.27 1096.27 1082.38C1055.89 1076.4 1020.1 1072.63 994.523 1062.14H994.063ZM817.699 1051.1C839.779 1025.53 835.271 1007.22 812.547 989.093C766.547 953.029 772.251 962.689 752.931 922.393C730.207 856.981 749.803 753.941 766.639 686.873C771.239 668.473 802.611 648.785 825.427 651.729C857.075 655.777 843.827 672.429 870.875 681.905C875.57 683.278 880.428 684.02 885.319 684.113C885.609 684.204 885.914 684.236 886.216 684.209C886.519 684.182 886.813 684.095 887.082 683.954C887.351 683.813 887.59 683.621 887.785 683.388C887.979 683.154 888.126 682.885 888.217 682.595C888.308 682.305 888.34 682 888.313 681.698C888.286 681.395 888.199 681.101 888.058 680.832C887.917 680.563 887.725 680.324 887.491 680.129C887.258 679.935 886.989 679.788 886.699 679.697C872.35 671.091 859.124 660.739 847.323 648.877C852.935 625.969 867.195 613.457 893.967 613.273C912.367 613.273 926.903 627.257 939.967 639.217C955.791 653.661 972.811 692.669 971.523 714.105C968.613 738.944 974.435 764.021 987.991 785.037C997.191 801.045 1014.49 814.937 1024.79 828.461C1030.49 836.005 1027.18 869.677 1023.87 884.489C1019.55 897.461 1010.35 922.209 1008.23 927.821C969.775 929.201 971.431 949.809 989.831 958.641C972.627 979.249 930.583 1002.16 960.667 1031.05C967.107 1044.57 977.411 1063.06 991.211 1068.67C1001 1072.64 1011.13 1075.72 1021.48 1077.87C1023.5 1092.13 1016.88 1139.33 1006.76 1194.25C953.958 1203.04 900.476 1207.07 846.955 1206.31C813.743 1151.93 780.715 1100.41 772.343 1092.13C790.931 1082.68 806.725 1068.54 818.159 1051.1H817.699ZM754.955 1099.59C773.355 1092.69 764.155 1093.88 768.571 1097.29C772.987 1100.69 803.347 1148.81 838.583 1205.94C796.815 1205.29 749.803 1202.17 732.047 1200.14C737.383 1195.91 723.583 1123.23 718.247 1114.03C731.587 1108.69 743.915 1104 755.415 1099.59H754.955ZM711.439 1116.88C719.004 1143.97 724.145 1171.68 726.803 1199.68C687.105 1193.99 648.164 1183.9 610.699 1169.6C642.804 1149.06 676.67 1131.42 711.899 1116.88H711.439ZM719.811 1782.04C685.311 1790.69 644.923 1785.63 610.147 1778.18C555.775 1766.49 518.147 1730.15 493.675 1683.6C454.759 1610 443.167 1500.61 455.035 1423.98C457.427 1408.61 460.463 1393.43 463.039 1377.98C477.667 1290.3 530.935 1224.25 605.271 1174.29C678.227 1201.06 727.263 1210.45 841.895 1211.09C921.291 1339.89 923.039 1352.77 945.763 1415.79C938.771 1417.08 906.387 1423.61 900.867 1428.12C898.659 1429.87 898.659 1433.36 900.867 1488.65C817.147 1490.31 735.267 1503.37 658.263 1553.05C649.063 1486.72 659.643 1466.67 681.079 1428.67C714.751 1368.96 708.679 1357.92 687.427 1323.97C683.924 1319.39 681.417 1314.13 680.067 1308.52C680.067 1306.31 670.867 1303.27 683.839 1326.09C702.239 1359.58 707.207 1367.49 674.639 1424.99C650.811 1467.13 641.059 1488.75 655.411 1554.99C648.971 1559.31 641.611 1564.19 634.527 1569.89C623.704 1577.51 613.548 1586.03 604.167 1595.37C603.984 1595.73 603.949 1596.14 604.07 1596.52C604.191 1596.9 604.457 1597.21 604.811 1597.4C605.165 1597.58 605.577 1597.62 605.956 1597.49C606.336 1597.37 606.652 1597.11 606.835 1596.75C609.687 1591.69 657.251 1559.95 670.039 1553.42C741.431 1517.45 820.367 1486.35 949.627 1494.91C947.998 1549.6 953.66 1604.27 966.463 1657.47C900.039 1699.43 805.647 1760.7 720.271 1782.04H719.811ZM972.167 1653.79C960.348 1601.91 955.124 1548.74 956.619 1495.55C1096.27 1504.75 1052.48 1501.81 1097.56 1504.75C1099.22 1531.62 1101.7 1560.78 1105.38 1587.55C1069.32 1594.27 1004.46 1633.83 972.627 1653.79H972.167ZM1306.49 1763.27C1225.26 1782.5 1167.57 1738.16 1130.96 1663.09C1090.48 1580.29 1097.19 1220.66 1099.49 1129.03L1183.58 1076.95C1297.11 1322.13 1310.73 1345.32 1336.21 1426.55C1369.15 1530.05 1412.57 1738.8 1306.95 1763.27H1306.49ZM1380.65 1622.51C1378.52 1573.25 1370.93 1524.37 1358.01 1476.79C1328.85 1363.35 1297.3 1306.49 1209.99 1122.95L1212.56 1121.57C1289.66 1162.79 1354.98 1290.76 1372.09 1376.23C1381.47 1420.85 1399.41 1566.76 1381.11 1622.51H1380.65Z" fill="black"/>
</svg>
