<svg width="1387" height="1602" viewBox="0 0 1387 1602" fill="none" xmlns="http://www.w3.org/2000/svg">
<path d="M1156 803L993 922V524H929L885 529L857 542L832 558L810 590L792 630L783 677H763V485H1386V677H1369L1350 615L1330 577L1298 542L1263 529L1217 524H1156V803Z" fill="#F5B429" stroke="black"/>
<path d="M1156.5 890L991.5 1012.5L989 1133L980.5 1155L965.5 1169.5L934 1181H894V1201.5H1255V1181L1205.75 1179.75L1184.5 1169.5L1167.5 1155L1159.5 1133L1156.5 1075V1012.5V890Z" fill="#F5B429" stroke="black"/>
<path d="M927 1049L779 934L785 877L927 988L1197 790L1168 748L1308 731L1255 856L1223 827L927 1049Z" fill="#F5B429" stroke="black"/>
<mask id="path-4-outside-1_3380_1232" maskUnits="userSpaceOnUse" x="23" y="451" width="759" height="799" fill="black">
<rect fill="white" x="23" y="451" width="759" height="799"/>
<path d="M408.203 466.07C460.938 466.07 511.068 477.138 558.594 499.273C606.771 521.409 647.461 552.008 680.664 591.07C708.008 624.273 729.167 663.01 744.141 707.281C759.115 751.552 766.602 799.078 766.602 849.859C766.602 906.5 757.487 958.583 739.258 1006.11C721.68 1052.98 696.615 1093.35 664.062 1127.2C632.161 1161.06 593.75 1187.42 548.828 1206.3C504.557 1225.18 455.729 1234.62 402.344 1234.62C348.307 1234.62 298.828 1225.18 253.906 1206.3C208.984 1187.42 170.573 1161.06 138.672 1127.2C106.771 1092.7 82.0312 1051.68 64.4531 1004.16C46.875 956.63 38.0859 904.221 38.0859 846.93C38.0859 790.94 47.2005 739.508 65.4297 692.633C83.6589 645.758 109.049 605.719 141.602 572.516C174.154 538.661 212.891 512.62 257.812 494.391C303.385 475.51 353.516 466.07 408.203 466.07ZM398.438 505.133C367.839 505.133 338.542 512.294 310.547 526.617C282.552 540.289 258.138 559.495 237.305 584.234C226.237 597.255 216.146 613.531 207.031 633.062C198.568 652.594 191.081 674.078 184.57 697.516C178.06 720.302 173.177 744.716 169.922 770.758C166.667 796.799 165.039 822.841 165.039 848.883C165.039 915.94 173.828 975.51 191.406 1027.59C208.984 1079.68 233.398 1118.74 264.648 1144.78C303.711 1177.98 349.935 1194.59 403.32 1194.59C431.315 1194.59 457.682 1189.38 482.422 1178.96C507.812 1168.54 529.948 1153.9 548.828 1135.02C609.375 1075.77 639.648 978.766 639.648 844C639.648 779.547 630.534 722.255 612.305 672.125C594.727 621.995 569.987 583.258 538.086 555.914C497.07 522.06 450.521 505.133 398.438 505.133Z"/>
</mask>
<path d="M408.203 466.07C460.938 466.07 511.068 477.138 558.594 499.273C606.771 521.409 647.461 552.008 680.664 591.07C708.008 624.273 729.167 663.01 744.141 707.281C759.115 751.552 766.602 799.078 766.602 849.859C766.602 906.5 757.487 958.583 739.258 1006.11C721.68 1052.98 696.615 1093.35 664.062 1127.2C632.161 1161.06 593.75 1187.42 548.828 1206.3C504.557 1225.18 455.729 1234.62 402.344 1234.62C348.307 1234.62 298.828 1225.18 253.906 1206.3C208.984 1187.42 170.573 1161.06 138.672 1127.2C106.771 1092.7 82.0312 1051.68 64.4531 1004.16C46.875 956.63 38.0859 904.221 38.0859 846.93C38.0859 790.94 47.2005 739.508 65.4297 692.633C83.6589 645.758 109.049 605.719 141.602 572.516C174.154 538.661 212.891 512.62 257.812 494.391C303.385 475.51 353.516 466.07 408.203 466.07ZM398.438 505.133C367.839 505.133 338.542 512.294 310.547 526.617C282.552 540.289 258.138 559.495 237.305 584.234C226.237 597.255 216.146 613.531 207.031 633.062C198.568 652.594 191.081 674.078 184.57 697.516C178.06 720.302 173.177 744.716 169.922 770.758C166.667 796.799 165.039 822.841 165.039 848.883C165.039 915.94 173.828 975.51 191.406 1027.59C208.984 1079.68 233.398 1118.74 264.648 1144.78C303.711 1177.98 349.935 1194.59 403.32 1194.59C431.315 1194.59 457.682 1189.38 482.422 1178.96C507.812 1168.54 529.948 1153.9 548.828 1135.02C609.375 1075.77 639.648 978.766 639.648 844C639.648 779.547 630.534 722.255 612.305 672.125C594.727 621.995 569.987 583.258 538.086 555.914C497.07 522.06 450.521 505.133 398.438 505.133Z" fill="black"/>
<path d="M558.594 499.273L552.261 512.871L552.296 512.887L552.331 512.904L558.594 499.273ZM680.664 591.07L692.243 581.535L692.169 581.445L692.093 581.356L680.664 591.07ZM744.141 707.281L729.931 712.087L744.141 707.281ZM739.258 1006.11L725.253 1000.74L725.233 1000.79L725.213 1000.84L739.258 1006.11ZM664.062 1127.2L653.25 1116.81L653.198 1116.86L653.146 1116.92L664.062 1127.2ZM548.828 1206.3L543.016 1192.48L542.98 1192.49L542.944 1192.51L548.828 1206.3ZM138.672 1127.2L127.658 1137.39L127.706 1137.44L127.755 1137.49L138.672 1127.2ZM64.4531 1004.16L50.3846 1009.36L64.4531 1004.16ZM65.4297 692.633L51.4496 687.196L65.4297 692.633ZM141.602 572.516L152.313 583.017L152.364 582.965L152.414 582.912L141.602 572.516ZM257.812 494.391L263.453 508.29L263.503 508.269L263.554 508.248L257.812 494.391ZM310.547 526.617L317.129 540.096L317.255 540.034L317.379 539.971L310.547 526.617ZM237.305 584.234L248.734 593.949L248.756 593.923L248.778 593.896L237.305 584.234ZM207.031 633.062L193.439 626.719L193.351 626.908L193.268 627.098L207.031 633.062ZM184.57 697.516L198.993 701.636L199.008 701.583L199.023 701.53L184.57 697.516ZM264.648 1144.78L274.363 1133.35L274.307 1133.3L274.251 1133.26L264.648 1144.78ZM482.422 1178.96L476.729 1165.08L476.665 1165.11L476.601 1165.14L482.422 1178.96ZM548.828 1135.02L538.337 1124.29L538.279 1124.35L538.222 1124.41L548.828 1135.02ZM612.305 672.125L598.15 677.088L598.178 677.17L598.208 677.251L612.305 672.125ZM538.086 555.914L547.848 544.525L547.742 544.434L547.634 544.346L538.086 555.914ZM408.203 466.07V481.07C458.763 481.07 506.73 491.665 552.261 512.871L558.594 499.273L564.927 485.676C515.405 462.611 463.112 451.07 408.203 451.07V466.07ZM558.594 499.273L552.331 512.904C598.591 534.158 637.497 563.446 669.235 600.785L680.664 591.07L692.093 581.356C657.425 540.569 614.951 508.66 564.856 485.643L558.594 499.273ZM680.664 591.07L669.085 600.606C695.176 632.288 715.49 669.39 729.931 712.087L744.141 707.281L758.35 702.475C742.844 656.631 720.839 616.259 692.243 581.535L680.664 591.07ZM744.141 707.281L729.931 712.087C744.338 754.682 751.602 800.571 751.602 849.859H766.602H781.602C781.602 797.585 773.891 748.423 758.35 702.475L744.141 707.281ZM766.602 849.859H751.602C751.602 904.87 742.754 955.109 725.253 1000.74L739.258 1006.11L753.263 1011.48C772.22 962.058 781.602 908.13 781.602 849.859H766.602ZM739.258 1006.11L725.213 1000.84C708.304 1045.93 684.295 1084.52 653.25 1116.81L664.062 1127.2L674.875 1137.6C708.934 1102.18 735.056 1060.04 753.303 1011.38L739.258 1006.11ZM664.062 1127.2L653.146 1116.92C622.749 1149.17 586.102 1174.37 543.016 1192.48L548.828 1206.3L554.64 1220.13C601.398 1200.48 641.574 1172.94 674.979 1137.49L664.062 1127.2ZM548.828 1206.3L542.944 1192.51C500.727 1210.51 453.928 1219.62 402.344 1219.62V1234.62V1249.62C457.53 1249.62 508.388 1239.86 554.712 1220.1L548.828 1206.3ZM402.344 1234.62V1219.62C350.085 1219.62 302.609 1210.5 259.718 1192.48L253.906 1206.3L248.094 1220.13C295.047 1239.87 346.529 1249.62 402.344 1249.62V1234.62ZM253.906 1206.3L259.718 1192.48C216.633 1174.37 179.986 1149.17 149.589 1116.92L138.672 1127.2L127.755 1137.49C161.16 1172.94 201.336 1200.48 248.094 1220.13L253.906 1206.3ZM138.672 1127.2L149.686 1117.02C119.221 1084.07 95.4717 1044.78 78.5217 998.953L64.4531 1004.16L50.3846 1009.36C68.5908 1058.58 94.3205 1101.33 127.658 1137.39L138.672 1127.2ZM64.4531 1004.16L78.5217 998.953C61.6346 953.295 53.0859 902.675 53.0859 846.93H38.0859H23.0859C23.0859 905.767 32.1154 959.965 50.3846 1009.36L64.4531 1004.16ZM38.0859 846.93H53.0859C53.0859 792.59 61.9268 743.026 79.4098 698.07L65.4297 692.633L51.4496 687.196C32.4742 735.99 23.0859 789.29 23.0859 846.93H38.0859ZM65.4297 692.633L79.4098 698.07C96.9639 652.93 121.294 614.655 152.313 583.017L141.602 572.516L130.89 562.015C96.8045 596.782 70.3538 638.585 51.4496 687.196L65.4297 692.633ZM141.602 572.516L152.414 582.912C183.459 550.625 220.417 525.754 263.453 508.29L257.812 494.391L252.172 480.491C205.364 499.486 164.848 526.698 130.789 562.119L141.602 572.516ZM257.812 494.391L263.554 508.248C307.118 490.2 355.271 481.07 408.203 481.07V466.07V451.07C351.76 451.07 299.653 460.821 252.071 480.533L257.812 494.391ZM398.438 505.133V490.133C365.396 490.133 333.764 497.89 303.715 513.263L310.547 526.617L317.379 539.971C343.32 526.699 370.281 520.133 398.438 520.133V505.133ZM310.547 526.617L303.964 513.139C274.019 527.763 247.958 548.296 225.831 574.572L237.305 584.234L248.778 593.896C268.318 570.694 291.085 552.815 317.129 540.096L310.547 526.617ZM237.305 584.234L225.876 574.52C213.747 588.788 202.98 606.274 193.439 626.719L207.031 633.062L220.624 639.406C229.312 620.789 238.726 605.722 248.734 593.949L237.305 584.234ZM207.031 633.062L193.268 627.098C184.495 647.345 176.787 669.49 170.118 693.501L184.57 697.516L199.023 701.53C205.374 678.666 212.641 657.843 220.795 639.027L207.031 633.062ZM184.57 697.516L170.147 693.395C163.404 716.996 158.378 742.172 155.038 768.897L169.922 770.758L184.806 772.618C187.976 747.261 192.715 723.609 198.993 701.636L184.57 697.516ZM169.922 770.758L155.038 768.897C151.706 795.551 150.039 822.214 150.039 848.883H165.039H180.039C180.039 823.468 181.627 798.048 184.806 772.618L169.922 770.758ZM165.039 848.883H150.039C150.039 917.225 158.994 978.465 177.194 1032.39L191.406 1027.59L205.619 1022.8C188.662 972.556 180.039 914.655 180.039 848.883H165.039ZM191.406 1027.59L177.194 1032.39C195.357 1086.21 221.045 1127.97 255.046 1156.3L264.648 1144.78L274.251 1133.26C245.752 1109.51 222.612 1073.15 205.619 1022.8L191.406 1027.59ZM264.648 1144.78L254.934 1156.21C296.828 1191.82 346.536 1209.59 403.32 1209.59V1194.59V1179.59C353.334 1179.59 310.594 1164.15 274.363 1133.35L264.648 1144.78ZM403.32 1194.59V1209.59C433.227 1209.59 461.582 1204.01 488.243 1192.79L482.422 1178.96L476.601 1165.14C453.783 1174.74 429.403 1179.59 403.32 1179.59V1194.59ZM482.422 1178.96L488.115 1192.84C515.292 1181.69 539.11 1165.95 559.435 1145.62L548.828 1135.02L538.222 1124.41C520.786 1141.84 500.333 1155.4 476.729 1165.08L482.422 1178.96ZM548.828 1135.02L559.319 1145.74C624.062 1082.39 654.648 980.493 654.648 844H639.648H624.648C624.648 977.038 594.688 1069.16 538.337 1124.29L548.828 1135.02ZM639.648 844H654.648C654.648 778.152 645.338 719.074 626.402 666.999L612.305 672.125L598.208 677.251C615.73 725.436 624.648 780.942 624.648 844H639.648ZM612.305 672.125L626.46 667.162C608.235 615.189 582.217 573.985 547.848 544.525L538.086 555.914L528.324 567.303C557.757 592.531 581.218 628.801 598.15 677.088L612.305 672.125ZM538.086 555.914L547.634 544.346C503.993 508.324 454.085 490.133 398.438 490.133V505.133V520.133C446.957 520.133 490.148 535.796 528.537 567.482L538.086 555.914Z" fill="black" mask="url(#path-4-outside-1_3380_1232)"/>
<path d="M197.693 1398.09V1365.57C197.693 1362.54 197.498 1360.15 197.107 1358.39C196.814 1356.54 196.131 1355.07 195.057 1354C194.08 1352.92 192.615 1352.19 190.662 1351.8C188.709 1351.31 186.121 1350.92 182.898 1350.63V1347.26H229.334V1350.63C226.111 1350.92 223.523 1351.31 221.57 1351.8C219.617 1352.19 218.104 1352.92 217.029 1354C216.053 1355.07 215.418 1356.54 215.125 1358.39C214.832 1360.15 214.686 1362.54 214.686 1365.57V1439.98C214.686 1442.91 214.832 1445.3 215.125 1447.16C215.516 1448.92 216.248 1450.33 217.322 1451.41C218.396 1452.48 219.861 1453.26 221.717 1453.75C223.67 1454.24 226.209 1454.63 229.334 1454.92V1458H182.898V1454.92C186.121 1454.73 188.709 1454.44 190.662 1454.04C192.615 1453.56 194.08 1452.73 195.057 1451.55C196.131 1450.29 196.814 1448.58 197.107 1446.43C197.498 1444.28 197.693 1441.45 197.693 1437.93V1405.41H146.863V1439.98C146.863 1442.91 147.01 1445.3 147.303 1447.16C147.693 1448.92 148.426 1450.33 149.5 1451.41C150.574 1452.48 152.088 1453.26 154.041 1453.75C155.994 1454.24 158.533 1454.63 161.658 1454.92V1458H115.076V1454.92C118.396 1454.73 121.033 1454.44 122.986 1454.04C124.939 1453.56 126.404 1452.73 127.381 1451.55C128.455 1450.29 129.139 1448.58 129.432 1446.43C129.725 1444.28 129.871 1441.45 129.871 1437.93V1365.57C129.871 1362.54 129.676 1360.15 129.285 1358.39C128.992 1356.54 128.309 1355.07 127.234 1354C126.258 1352.92 124.793 1352.19 122.84 1351.8C120.887 1351.31 118.299 1350.92 115.076 1350.63V1347.26H161.658V1350.63C158.436 1350.92 155.848 1351.31 153.895 1351.8C151.941 1352.19 150.428 1352.92 149.354 1354C148.377 1355.07 147.693 1356.54 147.303 1358.39C147.01 1360.15 146.863 1362.54 146.863 1365.57V1398.09H197.693ZM293.934 1345.06C301.844 1345.06 309.363 1346.72 316.492 1350.04C323.719 1353.36 329.822 1357.95 334.803 1363.81C338.904 1368.79 342.078 1374.6 344.324 1381.24C346.57 1387.88 347.693 1395.01 347.693 1402.63C347.693 1411.12 346.326 1418.94 343.592 1426.07C340.955 1433.1 337.195 1439.15 332.312 1444.23C327.527 1449.31 321.766 1453.26 315.027 1456.1C308.387 1458.93 301.062 1460.34 293.055 1460.34C284.949 1460.34 277.527 1458.93 270.789 1456.1C264.051 1453.26 258.289 1449.31 253.504 1444.23C248.719 1439.05 245.008 1432.9 242.371 1425.77C239.734 1418.64 238.416 1410.78 238.416 1402.19C238.416 1393.79 239.783 1386.08 242.518 1379.04C245.252 1372.01 249.061 1366.01 253.943 1361.03C258.826 1355.95 264.637 1352.04 271.375 1349.31C278.211 1346.48 285.73 1345.06 293.934 1345.06ZM292.469 1350.92C287.879 1350.92 283.484 1351.99 279.285 1354.14C275.086 1356.19 271.424 1359.07 268.299 1362.79C266.639 1364.74 265.125 1367.18 263.758 1370.11C262.488 1373.04 261.365 1376.26 260.389 1379.78C259.412 1383.2 258.68 1386.86 258.191 1390.76C257.703 1394.67 257.459 1398.58 257.459 1402.48C257.459 1412.54 258.777 1421.48 261.414 1429.29C264.051 1437.1 267.713 1442.96 272.4 1446.87C278.26 1451.85 285.193 1454.34 293.201 1454.34C297.4 1454.34 301.355 1453.56 305.066 1451.99C308.875 1450.43 312.195 1448.23 315.027 1445.4C324.109 1436.52 328.65 1421.96 328.65 1401.75C328.65 1392.08 327.283 1383.49 324.549 1375.97C321.912 1368.45 318.201 1362.64 313.416 1358.54C307.264 1353.46 300.281 1350.92 292.469 1350.92ZM423.426 1458H420.936L378.895 1366.15V1433.39C378.895 1437.69 379.09 1441.2 379.48 1443.94C379.969 1446.57 380.799 1448.67 381.971 1450.24C383.143 1451.8 384.754 1452.92 386.805 1453.61C388.855 1454.29 391.492 1454.73 394.715 1454.92V1458H355.457V1454.92C358.875 1454.63 361.609 1454.19 363.66 1453.61C365.809 1452.92 367.42 1451.8 368.494 1450.24C369.666 1448.67 370.447 1446.57 370.838 1443.94C371.229 1441.2 371.424 1437.69 371.424 1433.39V1365.57C371.424 1362.54 371.229 1360.1 370.838 1358.24C370.545 1356.39 369.812 1354.92 368.641 1353.85C367.566 1352.78 366.004 1352.04 363.953 1351.65C361.902 1351.16 359.168 1350.82 355.75 1350.63V1347.26H388.855L427.381 1431.78L464.588 1347.26H497.693V1350.63C494.568 1350.82 492.078 1351.16 490.223 1351.65C488.367 1352.14 486.902 1352.92 485.828 1354C484.754 1355.07 484.021 1356.54 483.631 1358.39C483.338 1360.25 483.191 1362.64 483.191 1365.57V1439.98C483.191 1442.91 483.387 1445.3 483.777 1447.16C484.168 1449.02 484.852 1450.48 485.828 1451.55C486.902 1452.63 488.367 1453.41 490.223 1453.9C492.176 1454.39 494.666 1454.73 497.693 1454.92V1458H450.818V1454.92C454.139 1454.73 456.775 1454.39 458.729 1453.9C460.779 1453.41 462.342 1452.58 463.416 1451.41C464.49 1450.14 465.174 1448.48 465.467 1446.43C465.857 1444.28 466.053 1441.45 466.053 1437.93V1362.2L423.426 1458ZM594.52 1458H504.285V1454.92C507.312 1454.73 509.754 1454.39 511.609 1453.9C513.562 1453.41 515.027 1452.63 516.004 1451.55C517.078 1450.48 517.811 1449.02 518.201 1447.16C518.592 1445.3 518.787 1442.91 518.787 1439.98V1365.57C518.787 1362.64 518.592 1360.25 518.201 1358.39C517.908 1356.54 517.225 1355.07 516.15 1354C515.076 1352.92 513.562 1352.14 511.609 1351.65C509.754 1351.16 507.312 1350.82 504.285 1350.63V1347.26H593.055L593.348 1371.28H589.393C588.611 1367.47 587.732 1364.45 586.756 1362.2C585.779 1359.86 584.363 1358.05 582.508 1356.78C580.75 1355.51 578.357 1354.68 575.33 1354.29C572.4 1353.9 568.592 1353.7 563.904 1353.7H541.346C539.1 1353.7 537.586 1354.04 536.805 1354.73C536.121 1355.41 535.779 1356.97 535.779 1359.42V1396.48H561.414C564.832 1396.48 567.615 1396.28 569.764 1395.89C571.912 1395.5 573.621 1394.77 574.891 1393.69C576.258 1392.52 577.283 1390.91 577.967 1388.86C578.65 1386.81 579.285 1384.07 579.871 1380.66H583.826V1419.47H579.871C579.285 1415.96 578.65 1413.18 577.967 1411.12C577.283 1408.98 576.307 1407.37 575.037 1406.29C573.768 1405.12 572.059 1404.34 569.91 1403.95C567.762 1403.56 564.93 1403.36 561.414 1403.36H535.779V1444.67C535.779 1446.33 535.877 1447.55 536.072 1448.33C536.268 1449.11 536.609 1449.7 537.098 1450.09C537.879 1450.58 539.734 1451.02 542.664 1451.41C545.691 1451.7 549.256 1451.85 553.357 1451.85H558.045C564.002 1451.85 568.982 1451.55 572.986 1450.97C577.088 1450.38 580.555 1449.26 583.387 1447.6C586.316 1445.94 588.855 1443.69 591.004 1440.86C593.152 1438.03 595.252 1434.32 597.303 1429.73H602.137L594.52 1458ZM697.938 1347.26C712.488 1347.26 723.426 1349.65 730.75 1354.44C738.074 1359.22 741.736 1366.3 741.736 1375.68C741.736 1379.09 741.15 1382.32 739.979 1385.34C738.807 1388.27 737.146 1390.67 734.998 1392.52C733.924 1393.4 732.898 1394.18 731.922 1394.87C730.945 1395.55 729.822 1396.18 728.553 1396.77C727.381 1397.26 725.965 1397.75 724.305 1398.23C722.742 1398.72 720.887 1399.26 718.738 1399.85C721.473 1400.43 723.816 1401.02 725.77 1401.6C727.82 1402.19 729.627 1402.87 731.189 1403.65C732.752 1404.34 734.168 1405.12 735.438 1406C736.707 1406.88 737.977 1407.9 739.246 1409.07C744.715 1413.96 747.449 1420.26 747.449 1427.97C747.449 1432.66 746.521 1436.86 744.666 1440.57C742.811 1444.28 740.125 1447.45 736.609 1450.09C733.094 1452.63 728.846 1454.58 723.865 1455.95C718.885 1457.32 713.27 1458 707.02 1458H651.062V1454.92C654.48 1454.83 657.215 1454.58 659.266 1454.19C661.414 1453.7 663.074 1452.92 664.246 1451.85C665.418 1450.77 666.199 1449.31 666.59 1447.45C666.98 1445.5 667.176 1443.01 667.176 1439.98V1365.57C667.176 1362.44 666.98 1359.95 666.59 1358.1C666.297 1356.24 665.564 1354.78 664.393 1353.7C663.221 1352.63 661.561 1351.9 659.412 1351.51C657.361 1351.12 654.578 1350.82 651.062 1350.63V1347.26H697.938ZM684.021 1444.96C684.021 1447.7 684.754 1449.55 686.219 1450.53C687.684 1451.41 690.369 1451.85 694.275 1451.85C697.205 1451.85 699.793 1451.8 702.039 1451.7C704.383 1451.51 706.482 1451.26 708.338 1450.97C710.291 1450.58 712.049 1450.09 713.611 1449.5C715.174 1448.92 716.639 1448.23 718.006 1447.45C724.842 1443.55 728.26 1437.1 728.26 1428.12C728.26 1417.57 723.426 1410.44 713.758 1406.73C712.195 1406.14 710.486 1405.66 708.631 1405.27C706.873 1404.88 704.822 1404.58 702.479 1404.39C700.232 1404.09 697.596 1403.9 694.568 1403.8C691.541 1403.61 688.025 1403.51 684.021 1403.51V1444.96ZM700.135 1396.77C708.045 1396.77 714.1 1395.06 718.299 1391.64C722.596 1388.13 724.744 1383.05 724.744 1376.41C724.744 1368.79 722.254 1363.08 717.273 1359.27C712.293 1355.46 704.92 1353.56 695.154 1353.56H687.83C685.291 1353.56 684.021 1355.22 684.021 1358.54V1396.77H700.135ZM861.854 1415.52C861.854 1421.96 861.414 1427.34 860.535 1431.63C859.754 1435.83 858.387 1439.69 856.434 1443.21C849.793 1454.63 837.293 1460.34 818.934 1460.34C804.676 1460.34 794.129 1456.88 787.293 1449.94C780.457 1443.01 777.039 1432.27 777.039 1417.72V1365.57C777.039 1362.54 776.844 1360.1 776.453 1358.24C776.16 1356.39 775.477 1354.92 774.402 1353.85C773.426 1352.78 771.961 1352.04 770.008 1351.65C768.055 1351.16 765.418 1350.82 762.098 1350.63V1347.26H809.412V1350.63C805.994 1350.92 803.26 1351.31 801.209 1351.8C799.256 1352.19 797.742 1352.92 796.668 1354C795.594 1355.07 794.861 1356.54 794.471 1358.39C794.178 1360.15 794.031 1362.54 794.031 1365.57V1419.04C794.031 1424.31 794.373 1428.65 795.057 1432.07C795.74 1435.49 796.814 1438.52 798.279 1441.15C802.869 1449.06 811.072 1453.02 822.889 1453.02C829.236 1453.02 834.9 1451.85 839.881 1449.5C844.861 1447.16 848.475 1443.99 850.721 1439.98C852.088 1437.35 853.016 1434.32 853.504 1430.9C854.09 1427.38 854.383 1422.75 854.383 1416.98V1371.87C854.383 1367.67 854.188 1364.25 853.797 1361.61C853.406 1358.98 852.625 1356.88 851.453 1355.31C850.379 1353.75 848.816 1352.63 846.766 1351.95C844.812 1351.26 842.225 1350.82 839.002 1350.63V1347.26H877.674V1350.63C874.256 1351.02 871.473 1351.55 869.324 1352.24C867.273 1352.92 865.662 1354 864.49 1355.46C863.416 1356.93 862.684 1358.98 862.293 1361.61C862 1364.25 861.854 1367.67 861.854 1371.87V1415.52ZM998.084 1350.63C995.838 1350.72 993.836 1351.07 992.078 1351.65C990.418 1352.24 988.709 1353.26 986.951 1354.73C985.291 1356.1 983.484 1358 981.531 1360.44C979.676 1362.79 977.479 1365.81 974.939 1369.52L950.184 1407.32V1439.98C950.184 1443.11 950.379 1445.65 950.77 1447.6C951.16 1449.46 951.941 1450.92 953.113 1451.99C954.383 1453.07 956.141 1453.8 958.387 1454.19C960.633 1454.58 963.611 1454.83 967.322 1454.92V1458H916.199V1454.92C920.008 1454.73 923.035 1454.44 925.281 1454.04C927.527 1453.56 929.188 1452.73 930.262 1451.55C931.434 1450.38 932.166 1448.72 932.459 1446.57C932.85 1444.43 933.045 1441.54 933.045 1437.93V1408.93L911.219 1376.85C907.02 1370.89 903.602 1366.2 900.965 1362.79C898.426 1359.27 896.229 1356.63 894.373 1354.88C892.518 1353.12 890.809 1351.99 889.246 1351.51C887.781 1350.92 886.072 1350.63 884.119 1350.63V1347.26H930.848V1350.63H926.746C921.57 1350.92 918.982 1352.48 918.982 1355.31C918.982 1357.56 919.959 1360.1 921.912 1362.93L946.668 1399.99L970.545 1362.2C972.107 1359.95 972.889 1357.9 972.889 1356.05C972.889 1354.09 972.059 1352.73 970.398 1351.95C968.738 1351.07 965.711 1350.63 961.316 1350.63V1347.26H998.084V1350.63ZM1093.45 1458H1003.21V1454.92C1006.24 1454.73 1008.68 1454.39 1010.54 1453.9C1012.49 1453.41 1013.95 1452.63 1014.93 1451.55C1016 1450.48 1016.74 1449.02 1017.13 1447.16C1017.52 1445.3 1017.71 1442.91 1017.71 1439.98V1365.57C1017.71 1362.64 1017.52 1360.25 1017.13 1358.39C1016.83 1356.54 1016.15 1355.07 1015.08 1354C1014 1352.92 1012.49 1352.14 1010.54 1351.65C1008.68 1351.16 1006.24 1350.82 1003.21 1350.63V1347.26H1091.98L1092.27 1371.28H1088.32C1087.54 1367.47 1086.66 1364.45 1085.68 1362.2C1084.71 1359.86 1083.29 1358.05 1081.43 1356.78C1079.68 1355.51 1077.28 1354.68 1074.26 1354.29C1071.33 1353.9 1067.52 1353.7 1062.83 1353.7H1040.27C1038.03 1353.7 1036.51 1354.04 1035.73 1354.73C1035.05 1355.41 1034.71 1356.97 1034.71 1359.42V1396.48H1060.34C1063.76 1396.48 1066.54 1396.28 1068.69 1395.89C1070.84 1395.5 1072.55 1394.77 1073.82 1393.69C1075.18 1392.52 1076.21 1390.91 1076.89 1388.86C1077.58 1386.81 1078.21 1384.07 1078.8 1380.66H1082.75V1419.47H1078.8C1078.21 1415.96 1077.58 1413.18 1076.89 1411.12C1076.21 1408.98 1075.23 1407.37 1073.96 1406.29C1072.69 1405.12 1070.98 1404.34 1068.84 1403.95C1066.69 1403.56 1063.86 1403.36 1060.34 1403.36H1034.71V1444.67C1034.71 1446.33 1034.8 1447.55 1035 1448.33C1035.19 1449.11 1035.54 1449.7 1036.02 1450.09C1036.8 1450.58 1038.66 1451.02 1041.59 1451.41C1044.62 1451.7 1048.18 1451.85 1052.28 1451.85H1056.97C1062.93 1451.85 1067.91 1451.55 1071.91 1450.97C1076.01 1450.38 1079.48 1449.26 1082.31 1447.6C1085.24 1445.94 1087.78 1443.69 1089.93 1440.86C1092.08 1438.03 1094.18 1434.32 1096.23 1429.73H1101.06L1093.45 1458ZM1213.42 1458H1186.46L1146.62 1406.44L1137.39 1406.88V1439.98C1137.39 1442.91 1137.54 1445.3 1137.83 1447.16C1138.22 1449.02 1138.95 1450.53 1140.03 1451.7C1141.1 1452.78 1142.62 1453.56 1144.57 1454.04C1146.52 1454.44 1149.11 1454.73 1152.33 1454.92V1458H1106.04V1454.92C1109.17 1454.63 1111.66 1454.24 1113.51 1453.75C1115.47 1453.26 1116.93 1452.43 1117.91 1451.26C1118.88 1450.09 1119.52 1448.48 1119.81 1446.43C1120.11 1444.28 1120.25 1441.45 1120.25 1437.93V1365.57C1120.25 1362.64 1120.11 1360.29 1119.81 1358.54C1119.52 1356.68 1118.88 1355.22 1117.91 1354.14C1116.93 1353.07 1115.47 1352.29 1113.51 1351.8C1111.66 1351.31 1109.17 1350.92 1106.04 1350.63V1347.26H1152.19C1160.39 1347.26 1167.71 1348.38 1174.16 1350.63C1180.7 1352.78 1185.54 1355.71 1188.66 1359.42C1190.71 1361.66 1192.22 1364.3 1193.2 1367.33C1194.18 1370.26 1194.67 1373.43 1194.67 1376.85C1194.67 1384.46 1192.27 1390.47 1187.49 1394.87C1182.8 1399.26 1175.13 1402.53 1164.49 1404.68L1198.91 1447.16C1201.26 1449.89 1203.46 1451.8 1205.51 1452.87C1207.65 1453.95 1210.29 1454.63 1213.42 1454.92V1458ZM1137.39 1400.72C1141.3 1400.63 1144.67 1400.48 1147.5 1400.29C1150.43 1400.09 1152.97 1399.8 1155.12 1399.41C1157.36 1398.92 1159.41 1398.33 1161.27 1397.65C1163.12 1396.96 1165.03 1396.09 1166.98 1395.01C1170.01 1393.35 1172.35 1390.91 1174.01 1387.69C1175.67 1384.37 1176.5 1380.61 1176.5 1376.41C1176.5 1368.5 1174.01 1362.74 1169.03 1359.12C1164.15 1355.41 1156.34 1353.56 1145.59 1353.56C1142.27 1353.56 1140.08 1354 1139 1354.88C1137.93 1355.66 1137.39 1357.22 1137.39 1359.56V1400.72ZM1293.1 1380.66H1289C1288.32 1378.21 1287.63 1376.07 1286.95 1374.21C1286.37 1372.36 1285.63 1370.7 1284.75 1369.23C1283.97 1367.67 1283.09 1366.3 1282.12 1365.13C1281.14 1363.86 1280.02 1362.54 1278.75 1361.17C1272.89 1355.02 1266.05 1351.95 1258.24 1351.95C1253.06 1351.95 1248.87 1353.31 1245.64 1356.05C1242.52 1358.78 1240.96 1362.49 1240.96 1367.18C1240.96 1371.77 1242.86 1376.07 1246.67 1380.07C1250.48 1384.07 1256.73 1388.47 1265.42 1393.25C1276.55 1399.31 1284.56 1405.22 1289.44 1410.98C1294.42 1416.74 1296.91 1423.04 1296.91 1429.88C1296.91 1434.17 1296.03 1438.18 1294.28 1441.89C1292.52 1445.6 1290.12 1448.82 1287.1 1451.55C1284.07 1454.29 1280.46 1456.44 1276.26 1458C1272.06 1459.56 1267.57 1460.34 1262.78 1460.34C1259.36 1460.34 1255.99 1460.05 1252.67 1459.46C1249.35 1458.88 1246.13 1457.9 1243.01 1456.54C1241.35 1455.95 1239.83 1455.51 1238.46 1455.22C1237.1 1454.83 1235.97 1454.63 1235.1 1454.63C1233.83 1454.63 1232.75 1455.17 1231.87 1456.24C1230.99 1457.32 1230.51 1458.63 1230.41 1460.2H1226.75L1221.77 1424.75H1225.57C1229.77 1435 1234.56 1442.52 1239.93 1447.31C1245.3 1451.99 1251.79 1454.34 1259.41 1454.34C1265.56 1454.34 1270.5 1452.63 1274.21 1449.21C1278.02 1445.79 1279.92 1441.3 1279.92 1435.73C1279.92 1433.59 1279.68 1431.68 1279.19 1430.02C1278.8 1428.36 1278.21 1426.95 1277.43 1425.77C1275.48 1422.65 1272.35 1419.43 1268.05 1416.11C1263.86 1412.79 1258.78 1409.46 1252.82 1406.14C1248.13 1403.7 1244.13 1401.26 1240.81 1398.82C1237.49 1396.38 1234.75 1393.84 1232.61 1391.2C1230.55 1388.57 1229.04 1385.83 1228.06 1383C1227.09 1380.17 1226.6 1377.09 1226.6 1373.77C1226.6 1364.49 1229.82 1357.27 1236.27 1352.09C1239 1349.85 1242.03 1348.14 1245.35 1346.96C1248.67 1345.7 1251.94 1345.06 1255.16 1345.06C1258.09 1345.06 1261.02 1345.4 1263.95 1346.09C1266.98 1346.67 1270.06 1347.55 1273.18 1348.72C1274.74 1349.41 1276.16 1349.89 1277.43 1350.19C1278.7 1350.48 1279.77 1350.63 1280.65 1350.63C1283.39 1350.63 1285.14 1348.77 1285.93 1345.06H1289.44L1293.1 1380.66Z" fill="black"/>
</svg>
